<svg xmlns="http://www.w3.org/2000/svg"
    xmlns:xlink="http://www.w3.org/1999/xlink" width="180px" height="50px" viewBox="0 0 180 50">
    <g id="surface1">
        <path style=" stroke:none;fill-rule:nonzero;fill:rgb(51.372549%,81.176471%,92.54902%);fill-opacity:1;" d="M 113.820312 5.648438 C 113.988281 5.648438 114.160156 5.648438 114.335938 5.648438 C 115.664062 5.65625 116.941406 5.800781 118.246094 6.054688 C 119.359375 6.257812 120.03125 6.171875 121.242188 6.050781 C 121.242188 7.753906 121.242188 9.457031 121.242188 11.210938 C 120.046875 11.011719 120.046875 11.011719 119.429688 10.792969 C 119.296875 10.746094 119.164062 10.703125 119.027344 10.652344 C 118.753906 10.558594 118.480469 10.460938 118.207031 10.367188 C 116.351562 9.726562 114.082031 9.074219 112.167969 9.832031 C 111.660156 10.140625 111.292969 10.367188 110.945312 10.855469 C 110.8125 11.371094 110.8125 11.371094 110.945312 11.921875 C 111.601562 12.867188 112.304688 13.324219 113.320312 13.835938 C 113.464844 13.910156 113.609375 13.984375 113.757812 14.058594 C 116.597656 15.710938 116.597656 15.710938 119.644531 16.546875 C 119.625 16.304688 119.601562 16.058594 119.578125 15.8125 C 119.558594 15.609375 119.558594 15.609375 119.539062 15.402344 C 119.460938 14.835938 119.460938 14.835938 119.113281 13.878906 C 121.867188 13.878906 124.617188 13.878906 127.457031 13.878906 C 127.339844 14.113281 127.222656 14.347656 127.101562 14.589844 C 127.042969 15.0625 127.042969 15.0625 127.054688 15.558594 C 127.054688 15.722656 127.054688 15.886719 127.054688 16.058594 C 127.101562 16.578125 127.242188 16.964844 127.457031 17.4375 C 127.300781 17.445312 127.144531 17.449219 126.980469 17.457031 C 126.777344 17.46875 126.570312 17.480469 126.355469 17.492188 C 126.152344 17.503906 125.949219 17.515625 125.738281 17.523438 C 124.859375 17.660156 124.300781 18.019531 123.761719 18.714844 C 123.632812 18.882812 123.503906 19.046875 123.371094 19.21875 C 123.4375 19.304688 123.507812 19.390625 123.574219 19.476562 C 124.636719 20.871094 125.429688 22.195312 126.035156 23.84375 C 126.136719 24.109375 126.136719 24.109375 126.238281 24.378906 C 126.746094 25.746094 126.746094 25.746094 126.746094 26.15625 C 124.753906 26.15625 122.761719 26.15625 120.710938 26.15625 C 120.828125 25.746094 120.945312 25.335938 121.066406 24.910156 C 121.027344 24.011719 121.027344 24.011719 120.53125 23.308594 C 120.449219 23.398438 120.367188 23.492188 120.285156 23.582031 C 118.285156 25.695312 115.777344 26.617188 112.882812 26.726562 C 109.847656 26.78125 106.832031 26.390625 104.511719 24.222656 C 103.054688 22.449219 102.804688 20.539062 102.957031 18.328125 C 103.246094 16.945312 103.992188 15.984375 105.089844 15.125 C 105.554688 14.84375 106.007812 14.628906 106.507812 14.414062 C 106.398438 14.214844 106.398438 14.214844 106.28125 14.015625 C 106.183594 13.84375 106.085938 13.667969 105.988281 13.488281 C 105.890625 13.320312 105.792969 13.148438 105.695312 12.96875 C 105.152344 11.855469 105.125 10.703125 105.464844 9.519531 C 105.914062 8.296875 106.730469 7.4375 107.84375 6.785156 C 109.742188 5.914062 111.757812 5.65625 113.820312 5.648438 Z M 109.703125 16.546875 C 108.519531 17.816406 108.519531 17.816406 108.039062 19.449219 C 108.140625 20.449219 108.410156 21.179688 109.183594 21.84375 C 110.789062 22.960938 112.359375 23.191406 114.28125 22.871094 C 115.648438 22.511719 116.773438 21.714844 117.691406 20.640625 C 117.691406 20.523438 117.691406 20.40625 117.691406 20.285156 C 116.867188 19.894531 116.042969 19.507812 115.222656 19.117188 C 114.941406 18.984375 114.664062 18.851562 114.382812 18.722656 C 112.828125 17.984375 111.273438 17.253906 109.703125 16.546875 Z M 109.703125 16.546875 "></path>
        <path style=" stroke:none;fill-rule:nonzero;fill:rgb(100%,100%,100%);fill-opacity:1;" d="M 171.300781 8.183594 C 173.46875 10.039062 174.398438 12.382812 174.652344 15.203125 C 174.777344 18.230469 174.085938 20.761719 172.1875 23.132812 C 172.101562 23.242188 172.011719 23.355469 171.921875 23.46875 C 170.152344 25.449219 167.179688 26.570312 164.582031 26.71875 C 160.542969 26.777344 156.820312 26.5625 153.695312 23.660156 C 151.792969 21.664062 151.066406 19.179688 151 16.460938 C 151.074219 13.53125 151.953125 10.878906 154.015625 8.75 C 158.449219 4.671875 166.566406 4.433594 171.300781 8.183594 Z M 158.386719 10.976562 C 156.914062 12.496094 156.375 14.414062 156.335938 16.492188 C 156.390625 18.449219 156.828125 20.113281 158.289062 21.496094 C 159.820312 22.734375 161.574219 23.050781 163.503906 22.914062 C 165.382812 22.664062 166.769531 22.007812 167.984375 20.535156 C 169.3125 18.640625 169.347656 16.472656 169.171875 14.234375 C 168.886719 12.8125 168.199219 11.496094 167.054688 10.582031 C 164.289062 8.734375 161.058594 9.332031 158.386719 10.976562 Z M 158.386719 10.976562 "></path>
        <path style=" stroke:none;fill-rule:nonzero;fill:rgb(100%,100%,100%);fill-opacity:1;" d="M 8.164062 6.050781 C 15.078125 6.050781 21.992188 6.050781 29.113281 6.050781 C 29.113281 6.578125 29.113281 7.105469 29.113281 7.652344 C 29.199219 8.167969 29.199219 8.167969 29.34375 8.625 C 29.417969 8.871094 29.417969 8.871094 29.492188 9.121094 C 29.542969 9.285156 29.59375 9.449219 29.644531 9.621094 C 29.695312 9.789062 29.746094 9.960938 29.800781 10.136719 C 29.921875 10.554688 30.050781 10.972656 30.175781 11.386719 C 29.355469 11.191406 28.59375 10.863281 27.8125 10.542969 C 26.191406 9.988281 24.621094 9.90625 22.921875 9.890625 C 22.691406 9.886719 22.460938 9.882812 22.222656 9.878906 C 21.617188 9.871094 21.011719 9.863281 20.40625 9.859375 C 19.789062 9.851562 19.167969 9.839844 18.546875 9.832031 C 17.335938 9.816406 16.125 9.800781 14.910156 9.785156 C 14.910156 11.253906 14.910156 12.722656 14.910156 14.234375 C 16.1875 14.21875 17.460938 14.199219 18.738281 14.179688 C 19.171875 14.171875 19.605469 14.164062 20.039062 14.160156 C 20.664062 14.152344 21.289062 14.140625 21.914062 14.128906 C 22.105469 14.128906 22.296875 14.125 22.492188 14.125 C 23.78125 14.101562 25.007812 13.945312 26.273438 13.699219 C 25.988281 14.433594 25.648438 15.085938 25.242188 15.757812 C 25.0625 16.054688 25.0625 16.054688 24.882812 16.359375 C 24.429688 17 23.957031 17.441406 23.253906 17.792969 C 22.984375 17.808594 22.71875 17.816406 22.449219 17.8125 C 22.28125 17.8125 22.113281 17.8125 21.941406 17.8125 C 21.761719 17.8125 21.582031 17.8125 21.394531 17.8125 C 21.210938 17.8125 21.023438 17.808594 20.835938 17.808594 C 20.242188 17.808594 19.652344 17.808594 19.0625 17.804688 C 18.660156 17.804688 18.261719 17.804688 17.859375 17.800781 C 16.875 17.800781 15.894531 17.796875 14.910156 17.792969 C 14.910156 19.378906 14.910156 20.964844 14.910156 22.597656 C 16.277344 22.585938 17.644531 22.570312 19.011719 22.550781 C 19.476562 22.546875 19.941406 22.539062 20.402344 22.535156 C 25.84375 22.53125 25.84375 22.53125 30.710938 20.285156 C 30.828125 20.34375 30.945312 20.402344 31.066406 20.460938 C 31.011719 20.589844 30.957031 20.71875 30.898438 20.851562 C 30.652344 21.4375 30.410156 22.023438 30.167969 22.609375 C 30.082031 22.8125 29.992188 23.011719 29.90625 23.21875 C 29.824219 23.417969 29.742188 23.613281 29.660156 23.816406 C 29.585938 23.996094 29.511719 24.175781 29.433594 24.359375 C 29.222656 25.019531 29.222656 25.019531 29.46875 26.15625 C 22.4375 26.15625 15.410156 26.15625 8.164062 26.15625 C 8.457031 25.863281 8.75 25.570312 9.054688 25.265625 C 9.726562 24.132812 9.789062 23.039062 9.789062 21.742188 C 9.789062 21.609375 9.789062 21.472656 9.789062 21.332031 C 9.792969 20.890625 9.792969 20.445312 9.792969 20.003906 C 9.792969 19.691406 9.792969 19.382812 9.792969 19.070312 C 9.796875 18.421875 9.796875 17.773438 9.796875 17.125 C 9.796875 16.292969 9.796875 15.464844 9.800781 14.632812 C 9.804688 13.996094 9.804688 13.355469 9.804688 12.714844 C 9.804688 12.40625 9.804688 12.101562 9.804688 11.796875 C 9.808594 11.367188 9.808594 10.9375 9.804688 10.511719 C 9.808594 10.386719 9.808594 10.261719 9.808594 10.132812 C 9.800781 8.933594 9.617188 7.734375 8.875 6.761719 C 8.507812 6.523438 8.507812 6.523438 8.164062 6.40625 C 8.164062 6.289062 8.164062 6.171875 8.164062 6.050781 Z M 8.164062 6.050781 "></path>
        <path style=" stroke:none;fill-rule:nonzero;fill:rgb(100%,100%,100%);fill-opacity:1;" d="M 98.359375 6.179688 C 98.90625 6.238281 98.90625 6.238281 99.585938 6.226562 C 99.328125 7.988281 98.835938 9.679688 98.34375 11.386719 C 97.882812 11.203125 97.421875 11.015625 96.964844 10.820312 C 94.339844 9.738281 90.9375 8.945312 88.171875 9.972656 C 87.609375 10.289062 87.371094 10.578125 87.160156 11.1875 C 87.109375 11.757812 87.109375 11.757812 87.460938 12.222656 C 88.570312 13.15625 90.328125 13.195312 91.707031 13.414062 C 97.816406 14.382812 97.816406 14.382812 99.574219 16.371094 C 100.628906 17.90625 100.890625 19.449219 100.570312 21.285156 C 100.113281 23.015625 99.242188 24.210938 97.742188 25.179688 C 93.984375 27.332031 89.230469 26.902344 85.089844 26.445312 C 84.855469 26.421875 84.855469 26.421875 84.617188 26.394531 C 84.480469 26.378906 84.34375 26.363281 84.207031 26.347656 C 83.675781 26.316406 83.675781 26.316406 82.722656 26.511719 C 82.105469 23.605469 82.105469 23.605469 81.480469 20.640625 C 82.195312 20.785156 82.683594 20.9375 83.332031 21.230469 C 86.429688 22.542969 90.480469 23.511719 93.761719 22.230469 C 94.4375 21.878906 94.855469 21.449219 95.148438 20.75 C 95.148438 20.070312 95.054688 19.558594 94.617188 19.039062 C 93.296875 18.328125 91.777344 18.148438 90.316406 17.945312 C 87.375 17.53125 84.75 17.15625 82.578125 14.980469 C 81.785156 13.824219 81.488281 12.605469 81.65625 11.210938 C 81.96875 9.542969 82.703125 8.382812 84.042969 7.351562 C 88.144531 4.628906 93.753906 5.660156 98.359375 6.179688 Z M 98.359375 6.179688 "></path>
        <path style=" stroke:none;fill-rule:nonzero;fill:rgb(100%,100%,100%);fill-opacity:1;" d="M 146.085938 6.035156 C 147.40625 6.261719 148.664062 6.269531 150 6.226562 C 149.777344 6.90625 149.550781 7.582031 149.328125 8.261719 C 149.25 8.492188 149.175781 8.722656 149.097656 8.953125 C 148.988281 9.285156 148.878906 9.613281 148.769531 9.945312 C 148.671875 10.246094 148.671875 10.246094 148.570312 10.550781 C 148.402344 11.03125 148.402344 11.03125 148.226562 11.386719 C 147.519531 11.175781 146.871094 10.902344 146.207031 10.585938 C 144.011719 9.582031 141.703125 9.363281 139.347656 9.964844 C 137.667969 10.605469 136.429688 11.539062 135.621094 13.167969 C 134.820312 14.957031 134.773438 17.328125 135.4375 19.175781 C 136.085938 20.578125 136.882812 21.621094 138.320312 22.230469 C 141.488281 23.308594 144.683594 22.558594 147.691406 21.351562 C 147.984375 21.203125 147.984375 21.203125 148.285156 21.050781 C 148.757812 20.820312 148.757812 20.820312 149.289062 20.820312 C 149.289062 22.640625 149.289062 24.460938 149.289062 26.335938 C 148.585938 26.277344 147.882812 26.21875 147.160156 26.15625 C 146.484375 26.222656 145.832031 26.304688 145.164062 26.414062 C 140.714844 27.039062 136.523438 26.996094 132.683594 24.433594 C 130.605469 22.761719 129.742188 20.164062 129.453125 17.597656 C 129.261719 14.664062 129.875 11.746094 131.789062 9.453125 C 135.554688 5.464844 140.972656 5.148438 146.085938 6.035156 Z M 146.085938 6.035156 "></path>
        <path style=" stroke:none;fill-rule:nonzero;fill:rgb(100%,100%,100%);fill-opacity:1;" d="M 31.242188 6.050781 C 34.054688 6.050781 36.867188 6.050781 39.761719 6.050781 C 39.46875 6.34375 39.175781 6.636719 38.875 6.941406 C 38.238281 7.863281 38.0625 8.726562 38.070312 9.832031 C 38.066406 9.96875 38.066406 10.109375 38.0625 10.253906 C 38.058594 10.707031 38.058594 11.160156 38.058594 11.617188 C 38.054688 11.933594 38.050781 12.25 38.046875 12.566406 C 38.039062 13.398438 38.039062 14.230469 38.035156 15.058594 C 38.03125 15.910156 38.023438 16.757812 38.015625 17.605469 C 38.003906 19.269531 37.996094 20.933594 37.988281 22.597656 C 39.003906 22.585938 40.019531 22.570312 41.035156 22.550781 C 41.382812 22.546875 41.726562 22.539062 42.070312 22.535156 C 45.289062 22.496094 48.289062 22.28125 50.945312 20.285156 C 51.0625 20.285156 51.179688 20.285156 51.300781 20.285156 C 51.195312 20.894531 51.039062 21.421875 50.789062 21.988281 C 50.726562 22.140625 50.660156 22.292969 50.59375 22.449219 C 50.460938 22.761719 50.324219 23.074219 50.183594 23.386719 C 50.121094 23.539062 50.058594 23.691406 49.992188 23.847656 C 49.933594 23.984375 49.871094 24.117188 49.8125 24.257812 C 49.640625 24.886719 49.640625 24.886719 49.882812 26.15625 C 43.730469 26.15625 37.578125 26.15625 31.242188 26.15625 C 31.59375 25.746094 31.945312 25.335938 32.308594 24.910156 C 32.742188 24.140625 32.714844 23.367188 32.710938 22.503906 C 32.710938 22.351562 32.714844 22.199219 32.714844 22.046875 C 32.714844 21.546875 32.714844 21.050781 32.714844 20.554688 C 32.71875 20.207031 32.71875 19.859375 32.71875 19.511719 C 32.71875 18.785156 32.71875 18.058594 32.71875 17.332031 C 32.71875 16.402344 32.722656 15.472656 32.726562 14.542969 C 32.726562 13.828125 32.726562 13.113281 32.726562 12.394531 C 32.726562 12.050781 32.726562 11.710938 32.730469 11.367188 C 32.730469 10.886719 32.730469 10.40625 32.730469 9.925781 C 32.730469 9.789062 32.730469 9.648438 32.734375 9.5 C 32.722656 8.578125 32.5625 7.9375 32.128906 7.117188 C 31.671875 6.710938 31.671875 6.710938 31.242188 6.40625 C 31.242188 6.289062 31.242188 6.171875 31.242188 6.050781 Z M 31.242188 6.050781 "></path>
        <path style=" stroke:none;fill-rule:nonzero;fill:rgb(100%,100%,100%);fill-opacity:1;" d="M 51.65625 6.050781 C 54.46875 6.050781 57.28125 6.050781 60.175781 6.050781 C 59.882812 6.34375 59.589844 6.636719 59.289062 6.941406 C 58.632812 7.789062 58.476562 8.582031 58.484375 9.648438 C 58.480469 9.789062 58.480469 9.929688 58.476562 10.074219 C 58.472656 10.539062 58.472656 11 58.472656 11.460938 C 58.46875 11.78125 58.464844 12.101562 58.460938 12.421875 C 58.453125 13.265625 58.453125 14.109375 58.449219 14.953125 C 58.445312 15.8125 58.4375 16.675781 58.429688 17.535156 C 58.417969 19.222656 58.410156 20.910156 58.402344 22.597656 C 58.628906 22.59375 58.859375 22.589844 59.09375 22.585938 C 59.238281 22.585938 59.386719 22.582031 59.539062 22.578125 C 59.859375 22.574219 60.179688 22.570312 60.5 22.5625 C 61.160156 22.554688 61.816406 22.542969 62.476562 22.535156 C 65.046875 22.503906 67.597656 22.449219 69.894531 21.152344 C 71.171875 20.46875 71.171875 20.46875 71.714844 20.285156 C 71.492188 21.15625 71.222656 21.992188 70.859375 22.816406 C 70.800781 22.949219 70.742188 23.082031 70.683594 23.21875 C 70.566406 23.484375 70.449219 23.746094 70.324219 24.007812 C 70.242188 24.195312 70.242188 24.195312 70.160156 24.386719 C 70.082031 24.550781 70.082031 24.550781 70.007812 24.71875 C 69.886719 25.214844 69.886719 25.214844 70.296875 26.15625 C 64.144531 26.15625 57.992188 26.15625 51.65625 26.15625 C 52.007812 25.746094 52.359375 25.335938 52.722656 24.910156 C 53.117188 24.066406 53.128906 23.242188 53.128906 22.324219 C 53.128906 22.175781 53.132812 22.027344 53.132812 21.871094 C 53.136719 21.382812 53.136719 20.894531 53.136719 20.402344 C 53.136719 20.0625 53.140625 19.71875 53.140625 19.375 C 53.140625 18.660156 53.144531 17.945312 53.144531 17.226562 C 53.144531 16.3125 53.148438 15.394531 53.152344 14.480469 C 53.15625 13.773438 53.160156 13.066406 53.15625 12.359375 C 53.160156 12.023438 53.160156 11.683594 53.164062 11.347656 C 53.167969 10.875 53.164062 10.402344 53.164062 9.929688 C 53.164062 9.789062 53.167969 9.652344 53.167969 9.511719 C 53.15625 8.523438 52.914062 7.765625 52.367188 6.941406 C 51.992188 6.613281 51.992188 6.613281 51.65625 6.40625 C 51.65625 6.289062 51.65625 6.171875 51.65625 6.050781 Z M 51.65625 6.050781 "></path>
        <path style=" stroke:none;fill-rule:nonzero;fill:rgb(100%,100%,100%);fill-opacity:1;" d="M 72.070312 6.050781 C 74.824219 6.050781 77.578125 6.050781 80.414062 6.050781 C 80.414062 6.167969 80.414062 6.285156 80.414062 6.40625 C 80.277344 6.480469 80.144531 6.550781 80.003906 6.628906 C 79.40625 7.019531 79.253906 7.347656 78.992188 8.007812 C 78.824219 8.828125 78.789062 9.625 78.789062 10.460938 C 78.789062 10.59375 78.789062 10.730469 78.789062 10.867188 C 78.789062 11.3125 78.785156 11.753906 78.785156 12.199219 C 78.785156 12.507812 78.785156 12.816406 78.785156 13.128906 C 78.785156 13.777344 78.785156 14.425781 78.785156 15.074219 C 78.785156 15.902344 78.78125 16.730469 78.777344 17.558594 C 78.777344 18.195312 78.777344 18.835938 78.777344 19.476562 C 78.777344 19.78125 78.773438 20.085938 78.773438 20.390625 C 78.648438 23.214844 78.648438 23.214844 79.882812 25.621094 C 80.058594 25.800781 80.234375 25.976562 80.414062 26.15625 C 77.660156 26.15625 74.90625 26.15625 72.070312 26.15625 C 72.421875 25.746094 72.773438 25.335938 73.136719 24.910156 C 73.503906 23.988281 73.542969 23.136719 73.539062 22.160156 C 73.539062 22.011719 73.542969 21.867188 73.542969 21.71875 C 73.546875 21.238281 73.546875 20.761719 73.542969 20.285156 C 73.546875 19.953125 73.546875 19.617188 73.546875 19.285156 C 73.546875 18.585938 73.546875 17.886719 73.546875 17.1875 C 73.546875 16.296875 73.550781 15.402344 73.554688 14.507812 C 73.554688 13.820312 73.554688 13.128906 73.554688 12.441406 C 73.554688 12.113281 73.554688 11.785156 73.558594 11.453125 C 73.558594 10.992188 73.558594 10.53125 73.558594 10.070312 C 73.558594 9.9375 73.558594 9.800781 73.5625 9.664062 C 73.550781 8.707031 73.355469 7.988281 72.957031 7.117188 C 72.503906 6.699219 72.503906 6.699219 72.070312 6.40625 C 72.070312 6.289062 72.070312 6.171875 72.070312 6.050781 Z M 72.070312 6.050781 "></path>
        <path style=" stroke:none;fill-rule:nonzero;fill:rgb(100%,100%,100%);fill-opacity:1;" d="M 118.921875 34.496094 C 119.046875 34.527344 119.167969 34.558594 119.296875 34.589844 C 119.59375 34.671875 119.886719 34.773438 120.175781 34.875 C 120.265625 35.050781 120.265625 35.050781 120.355469 35.230469 C 120.140625 35.695312 120.140625 35.695312 119.832031 36.230469 C 119.734375 36.410156 119.632812 36.589844 119.527344 36.773438 C 119.410156 36.980469 119.410156 36.980469 119.289062 37.1875 C 118.757812 37.011719 118.757812 37.011719 118.4375 36.664062 C 117.554688 35.832031 116.515625 35.898438 115.367188 35.878906 C 114.78125 35.953125 114.445312 36.140625 113.964844 36.476562 C 114.023438 36.652344 114.082031 36.828125 114.140625 37.011719 C 115.203125 37.410156 116.289062 37.476562 117.410156 37.566406 C 118.402344 37.660156 119.179688 37.871094 119.964844 38.523438 C 120.4375 39.117188 120.414062 39.796875 120.402344 40.519531 C 120.324219 41.175781 120.089844 41.511719 119.644531 41.992188 C 117.867188 43.132812 115.675781 43.113281 113.648438 42.769531 C 112.414062 42.460938 112.414062 42.460938 111.835938 42.171875 C 111.953125 41.390625 112.222656 40.75 112.542969 40.035156 C 113.078125 40.214844 113.078125 40.214844 113.320312 40.472656 C 114.003906 41.125 115.140625 41.269531 116.054688 41.292969 C 116.875 41.230469 117.59375 41.140625 118.226562 40.570312 C 118.226562 40.335938 118.226562 40.101562 118.226562 39.859375 C 118.097656 39.84375 117.972656 39.832031 117.839844 39.820312 C 117.257812 39.761719 116.675781 39.699219 116.09375 39.636719 C 115.796875 39.605469 115.796875 39.605469 115.488281 39.574219 C 114.296875 39.441406 113.390625 39.253906 112.367188 38.613281 C 111.828125 37.851562 111.722656 37.222656 111.835938 36.300781 C 112.101562 35.539062 112.472656 35.046875 113.164062 34.628906 C 114.957031 33.796875 117.054688 34.027344 118.921875 34.496094 Z M 118.921875 34.496094 "></path>
        <path style=" stroke:none;fill-rule:nonzero;fill:rgb(100%,100%,100%);fill-opacity:1;" d="M 153.371094 34.699219 C 153.933594 35.082031 154.210938 35.332031 154.34375 36.007812 C 154.378906 36.628906 154.402344 37.144531 154.058594 37.679688 C 153.816406 37.921875 153.816406 37.921875 153.371094 38.257812 C 153.511719 38.328125 153.652344 38.402344 153.792969 38.480469 C 154.292969 38.8125 154.402344 38.957031 154.617188 39.5 C 154.71875 40.242188 154.691406 40.902344 154.425781 41.605469 C 153.734375 42.386719 152.820312 42.824219 151.78125 42.910156 C 148.183594 42.984375 148.183594 42.984375 146.804688 41.949219 C 146.363281 41.34375 146.285156 40.960938 146.273438 40.214844 C 146.453125 39.207031 146.90625 38.839844 147.691406 38.257812 C 147.550781 38.132812 147.40625 38.007812 147.257812 37.878906 C 146.746094 37.300781 146.628906 37.066406 146.628906 36.300781 C 146.855469 35.519531 147.050781 35.144531 147.679688 34.628906 C 149.246094 33.796875 151.824219 33.832031 153.371094 34.699219 Z M 148.757812 35.941406 C 148.566406 36.269531 148.566406 36.269531 148.578125 36.65625 C 148.855469 37.140625 149.003906 37.335938 149.546875 37.492188 C 150.636719 37.582031 151.34375 37.546875 152.308594 37.011719 C 152.367188 36.589844 152.367188 36.589844 152.308594 36.121094 C 151.902344 35.714844 151.660156 35.59375 151.085938 35.523438 C 150.8125 35.527344 150.8125 35.527344 150.53125 35.53125 C 150.257812 35.53125 150.257812 35.53125 149.976562 35.535156 C 149.476562 35.585938 149.175781 35.667969 148.757812 35.941406 Z M 148.414062 39.644531 C 148.171875 40.039062 148.171875 40.039062 148.347656 40.503906 C 148.59375 40.953125 148.761719 41.222656 149.257812 41.390625 C 150.429688 41.601562 151.460938 41.582031 152.484375 40.925781 C 152.71875 40.726562 152.71875 40.726562 152.71875 40.234375 C 152.722656 39.671875 152.722656 39.671875 152.339844 39.355469 C 151.136719 38.703125 149.441406 38.679688 148.414062 39.644531 Z M 148.414062 39.644531 "></path>
        <path style=" stroke:none;fill-rule:nonzero;fill:rgb(100%,100%,100%);fill-opacity:1;" d="M 109.703125 33.628906 C 109.878906 33.628906 110.054688 33.628906 110.238281 33.628906 C 110.238281 34.394531 110.238281 35.15625 110.238281 35.941406 C 110.0625 35.941406 109.886719 35.941406 109.703125 35.941406 C 109.703125 35.824219 109.703125 35.707031 109.703125 35.585938 C 107.886719 35.585938 106.070312 35.585938 104.203125 35.585938 C 104.203125 36.175781 104.203125 36.761719 104.203125 37.367188 C 105.3125 37.308594 106.425781 37.25 107.574219 37.1875 C 107.632812 37.070312 107.691406 36.953125 107.75 36.832031 C 107.925781 36.832031 108.101562 36.832031 108.285156 36.832031 C 108.285156 37.714844 108.285156 38.59375 108.285156 39.5 C 108.109375 39.5 107.933594 39.5 107.75 39.5 C 107.75 39.324219 107.75 39.148438 107.75 38.96875 C 106.578125 38.96875 105.410156 38.96875 104.203125 38.96875 C 104.203125 39.613281 104.203125 40.261719 104.203125 40.925781 C 104.972656 40.902344 105.742188 40.882812 106.511719 40.859375 C 106.773438 40.851562 107.039062 40.84375 107.300781 40.835938 C 107.675781 40.828125 108.054688 40.816406 108.429688 40.804688 C 108.65625 40.796875 108.882812 40.789062 109.117188 40.785156 C 109.730469 40.761719 109.730469 40.761719 110.414062 40.570312 C 110.414062 41.332031 110.414062 42.097656 110.414062 42.882812 C 109.886719 42.792969 109.886719 42.792969 109.347656 42.703125 C 109.082031 42.6875 108.8125 42.671875 108.542969 42.667969 C 108.394531 42.664062 108.246094 42.660156 108.089844 42.65625 C 107.933594 42.65625 107.777344 42.652344 107.613281 42.648438 C 107.449219 42.644531 107.285156 42.640625 107.117188 42.636719 C 106.597656 42.625 106.074219 42.613281 105.554688 42.605469 C 105.199219 42.597656 104.847656 42.589844 104.492188 42.582031 C 103.625 42.5625 102.757812 42.542969 101.894531 42.527344 C 101.921875 42.425781 101.949219 42.320312 101.980469 42.214844 C 102.070312 41.824219 102.09375 41.492188 102.09375 41.09375 C 102.09375 40.953125 102.09375 40.8125 102.09375 40.667969 C 102.09375 40.519531 102.09375 40.367188 102.09375 40.214844 C 102.09375 39.980469 102.09375 39.980469 102.09375 39.742188 C 102.09375 39.414062 102.09375 39.085938 102.09375 38.757812 C 102.09375 38.257812 102.09375 37.757812 102.09375 37.253906 C 102.09375 36.9375 102.09375 36.617188 102.09375 36.300781 C 102.09375 36.148438 102.09375 36 102.09375 35.84375 C 102.09375 35.703125 102.09375 35.566406 102.09375 35.421875 C 102.09375 35.296875 102.09375 35.175781 102.09375 35.046875 C 102.078125 34.632812 102.078125 34.632812 101.894531 33.984375 C 104.472656 33.984375 107.046875 33.984375 109.703125 33.984375 C 109.703125 33.867188 109.703125 33.75 109.703125 33.628906 Z M 109.703125 33.628906 "></path>
        <path style=" stroke:none;fill-rule:nonzero;fill:rgb(100%,100%,100%);fill-opacity:1;" d="M 163.667969 33.984375 C 163.667969 34.75 163.667969 35.511719 163.667969 36.300781 C 163.550781 36.300781 163.433594 36.300781 163.3125 36.300781 C 163.3125 36.179688 163.3125 36.0625 163.3125 35.941406 C 161.671875 35.941406 160.03125 35.941406 158.34375 35.941406 C 158.34375 36.414062 158.34375 36.882812 158.34375 37.367188 C 158.496094 37.308594 158.648438 37.25 158.804688 37.191406 C 160.261719 36.753906 161.78125 36.867188 163.136719 37.542969 C 163.75 37.960938 164.101562 38.28125 164.378906 38.96875 C 164.476562 39.761719 164.476562 40.5 164.179688 41.246094 C 163.230469 42.359375 162.347656 42.808594 160.898438 42.941406 C 159.464844 42.957031 158.375 42.835938 157.101562 42.171875 C 156.988281 42.117188 156.875 42.0625 156.757812 42.003906 C 156.511719 41.886719 156.273438 41.761719 156.035156 41.636719 C 156.300781 40.820312 156.71875 40.3125 157.277344 39.679688 C 157.8125 40.214844 157.8125 40.214844 158.046875 40.480469 C 158.625 41 159.359375 41.160156 160.117188 41.28125 C 160.929688 41.226562 161.660156 41.15625 162.25 40.570312 C 162.335938 39.953125 162.335938 39.953125 162.25 39.324219 C 161.714844 38.769531 161.179688 38.621094 160.417969 38.578125 C 159.765625 38.613281 159.289062 38.699219 158.699219 38.96875 C 158.640625 39.144531 158.582031 39.320312 158.519531 39.5 C 157.867188 39.226562 157.457031 38.828125 156.96875 38.324219 C 156.824219 38.175781 156.683594 38.03125 156.539062 37.882812 C 156.429688 37.769531 156.324219 37.660156 156.214844 37.542969 C 156.273438 37.425781 156.332031 37.308594 156.390625 37.1875 C 156.402344 36.675781 156.40625 36.167969 156.402344 35.652344 C 156.402344 35.511719 156.398438 35.367188 156.398438 35.222656 C 156.398438 34.867188 156.394531 34.515625 156.390625 34.164062 C 157.371094 34.136719 158.347656 34.113281 159.328125 34.085938 C 159.664062 34.078125 159.996094 34.070312 160.328125 34.0625 C 160.808594 34.050781 161.285156 34.035156 161.765625 34.023438 C 161.914062 34.019531 162.0625 34.015625 162.21875 34.011719 C 163.273438 33.984375 163.273438 33.984375 163.667969 33.984375 Z M 163.667969 33.984375 "></path>
        <path style=" stroke:none;fill-rule:nonzero;fill:rgb(100%,100%,100%);fill-opacity:1;" d="M 172.898438 34.875 C 174.019531 35.875 174.53125 36.875 174.667969 38.363281 C 174.6875 39.554688 174.367188 40.53125 173.609375 41.460938 C 172.492188 42.53125 171.613281 42.910156 170.09375 42.972656 C 168.734375 42.9375 167.71875 42.613281 166.707031 41.6875 C 165.644531 40.515625 165.523438 39.394531 165.566406 37.84375 C 165.664062 36.667969 166.0625 35.972656 166.910156 35.175781 C 168.644531 33.824219 171.015625 33.707031 172.898438 34.875 Z M 168.0625 36.742188 C 167.488281 37.566406 167.484375 38.355469 167.574219 39.324219 C 167.890625 40.238281 168.371094 40.742188 169.171875 41.28125 C 169.882812 41.484375 170.265625 41.507812 170.96875 41.269531 C 171.722656 40.761719 172.25 40.207031 172.542969 39.324219 C 172.644531 38.304688 172.582031 37.535156 172.011719 36.65625 C 171.589844 36.167969 171.382812 35.96875 170.769531 35.765625 C 169.542969 35.6875 168.914062 35.792969 168.0625 36.742188 Z M 168.0625 36.742188 "></path>
        <path style=" stroke:none;fill-rule:nonzero;fill:rgb(100%,100%,100%);fill-opacity:1;" d="M 121.953125 33.808594 C 122.128906 33.808594 122.304688 33.808594 122.484375 33.808594 C 122.484375 33.925781 122.484375 34.042969 122.484375 34.164062 C 125.003906 34.164062 127.523438 34.164062 130.117188 34.164062 C 130.117188 34.046875 130.117188 33.929688 130.117188 33.808594 C 130.292969 33.808594 130.46875 33.808594 130.652344 33.808594 C 130.652344 34.628906 130.652344 35.453125 130.652344 36.300781 C 130.476562 36.300781 130.300781 36.300781 130.117188 36.300781 C 130.117188 36.179688 130.117188 36.0625 130.117188 35.941406 C 129.179688 35.941406 128.242188 35.941406 127.277344 35.941406 C 127.277344 38.058594 127.277344 40.171875 127.277344 42.347656 C 127.394531 42.347656 127.511719 42.347656 127.632812 42.347656 C 127.632812 42.523438 127.632812 42.699219 127.632812 42.882812 C 126.753906 42.882812 125.875 42.882812 124.96875 42.882812 C 125.027344 42.648438 125.085938 42.414062 125.148438 42.171875 C 125.175781 41.691406 125.195312 41.21875 125.203125 40.738281 C 125.207031 40.601562 125.210938 40.464844 125.214844 40.324219 C 125.226562 39.886719 125.238281 39.449219 125.246094 39.011719 C 125.253906 38.714844 125.261719 38.417969 125.269531 38.121094 C 125.289062 37.394531 125.308594 36.667969 125.324219 35.941406 C 124.386719 35.941406 123.449219 35.941406 122.484375 35.941406 C 122.484375 36.058594 122.484375 36.179688 122.484375 36.300781 C 122.308594 36.300781 122.132812 36.300781 121.953125 36.300781 C 121.953125 35.476562 121.953125 34.65625 121.953125 33.808594 Z M 121.953125 33.808594 "></path>
        <path style=" stroke:none;fill-rule:nonzero;fill:rgb(100%,100%,100%);fill-opacity:1;" d="M 141.65625 34.164062 C 142.59375 34.164062 143.53125 34.164062 144.496094 34.164062 C 144.496094 34.28125 144.496094 34.398438 144.496094 34.519531 C 144.378906 34.519531 144.261719 34.519531 144.140625 34.519531 C 144.164062 35.625 144.183594 36.730469 144.207031 37.835938 C 144.214844 38.210938 144.222656 38.585938 144.230469 38.964844 C 144.242188 39.503906 144.25 40.042969 144.261719 40.585938 C 144.265625 40.753906 144.269531 40.921875 144.273438 41.09375 C 144.277344 41.25 144.28125 41.40625 144.28125 41.570312 C 144.289062 41.777344 144.289062 41.777344 144.292969 41.988281 C 144.308594 42.386719 144.308594 42.386719 144.496094 42.882812 C 143.558594 42.882812 142.621094 42.882812 141.65625 42.882812 C 141.714844 42.707031 141.773438 42.53125 141.835938 42.347656 C 141.859375 41.929688 141.878906 41.511719 141.890625 41.089844 C 141.894531 40.96875 141.898438 40.847656 141.902344 40.722656 C 141.914062 40.332031 141.921875 39.945312 141.933594 39.558594 C 141.941406 39.292969 141.949219 39.03125 141.957031 38.765625 C 141.976562 38.121094 141.996094 37.476562 142.011719 36.832031 C 141.660156 36.949219 141.308594 37.066406 140.945312 37.1875 C 140.945312 36.484375 140.945312 35.78125 140.945312 35.054688 C 141.238281 35.054688 141.53125 35.054688 141.835938 35.054688 C 141.894531 34.878906 141.953125 34.699219 142.011719 34.519531 C 141.894531 34.519531 141.777344 34.519531 141.65625 34.519531 C 141.65625 34.402344 141.65625 34.285156 141.65625 34.164062 Z M 141.65625 34.164062 "></path>
        <path style=" stroke:none;fill-rule:nonzero;fill:rgb(100%,100%,100%);fill-opacity:1;" d="M 134.378906 40.570312 C 134.746094 40.949219 134.746094 40.949219 134.910156 41.460938 C 134.890625 42.027344 134.890625 42.027344 134.734375 42.527344 C 134.078125 42.964844 133.734375 42.953125 132.957031 42.882812 C 132.613281 42.695312 132.613281 42.695312 132.425781 42.347656 C 132.363281 41.746094 132.324219 41.304688 132.605469 40.757812 C 133.179688 40.453125 133.742188 40.429688 134.378906 40.570312 Z M 134.378906 40.570312 "></path>
    </g>
</svg>